<svg width="155" height="18" viewBox="0 0 155 18" fill="none" xmlns="http://www.w3.org/2000/svg">
<path fill-rule="evenodd" clip-rule="evenodd" d="M4.07697 0.624281C1.65851 1.51465 0 3.60307 0 5.75841C0 9.51413 2.27251 10.6967 10.5129 11.2312C14.5972 11.4964 17.9387 12.0253 17.9387 12.408C17.9387 12.7908 14.6999 13.1034 10.742 13.1034C4.2743 13.1034 3.36676 13.2943 1.77267 14.9918C0.797456 16.0307 0 17.1325 0 17.4402C0 17.7486 4.52299 18 10.0506 18C19.5018 18 20.2063 17.8874 21.8738 16.1115C24.0851 13.7546 24.1373 11.1463 22.0157 9.02283C20.6262 7.63219 19.2979 7.39062 13.0463 7.39062C7.06703 7.39062 5.70776 7.16374 5.70776 6.16646C5.70776 5.17571 7.0075 4.9423 12.5122 4.9423C17.9819 4.9423 19.5572 4.66237 20.5422 3.51411C23.4638 0.109318 23.3382 0.0423977 14.1137 0.110135C9.26614 0.145227 4.74967 0.377001 4.07697 0.624281ZM29.7798 8.8188L23.551 17.5919L26.6561 17.8637C30.0065 18.1575 29.6942 18.4252 35.3147 10.442L38.0504 6.55656L40.2397 9.62593L42.4291 12.6953L39.3567 12.9565C36.5248 13.1972 32.6158 15.7312 32.6158 17.3259C32.6158 17.6964 37.0189 18 42.4005 18C47.7821 18 52.1853 17.7805 52.1853 17.512C52.1853 16.8566 43.3749 4.19475 41.3095 1.8819C38.1523 -1.65347 36.515 -0.668431 29.7798 8.8188ZM54.6314 9.02283V18H62.7389C70.1933 18 70.9491 17.8539 72.116 16.1858C72.8139 15.1885 73.3855 14.0868 73.3855 13.7375C73.3855 13.389 70.4501 13.1034 66.8624 13.1034H60.3392V6.57451V0.0456617H57.4853H54.6314V9.02283ZM77.5913 2.49398L75.7828 4.9423L83.7573 4.95454C92.1714 4.9676 94.3265 5.57805 93.507 7.71625C93.092 8.80003 91.5403 9.02283 84.4186 9.02283H75.8317V13.5114V18H78.6856C81.1864 18 81.5395 17.747 81.5395 15.9597C81.5395 13.9913 81.7278 13.9195 86.8656 13.9195C96.0062 13.9195 100.84 10.4127 99.0036 5.11368C97.809 1.66563 93.6505 0.0481099 85.9736 0.0472938C79.6143 0.0456616 79.3412 0.12564 77.5913 2.49398ZM101.924 9.02283V18H104.778C107.564 18 107.632 17.9225 107.632 14.7356V11.4712H112.932H118.232V14.7356C118.232 17.9282 118.296 18 121.114 18H123.995L123.764 9.22686L123.532 0.453715L120.882 0.198274C118.285 -0.0522708 118.232 0.00893702 118.232 3.25867V6.57451H112.932H107.632V3.31009C107.632 0.123192 107.564 0.0456617 104.778 0.0456617H101.924V9.02283ZM137.288 1.84518C136.363 2.8751 133.35 6.93197 130.594 10.8591L125.584 18L129.043 17.9649C132.4 17.9314 132.617 17.7609 136.447 12.1689L140.391 6.40721L142.358 9.30439C143.44 10.8974 144.325 12.404 144.325 12.6521C144.325 12.9002 142.926 13.1034 141.217 13.1034C138.708 13.1034 137.759 13.5759 136.3 15.5517L134.491 18H144.746H155L149.051 9.22686C142.487 -0.452979 140.483 -1.7106 137.288 1.84518Z" fill="#322C0F"/>
</svg>
