<svg width="120" height="120" viewBox="0 0 120 120" fill="none" xmlns="http://www.w3.org/2000/svg">
<path d="M65 77C65 66.6291 65 61.4437 68.295 58.2218C71.5901 55 76.8934 55 87.5 55C98.1066 55 103.41 55 106.705 58.2218C110 61.4437 110 66.6291 110 77V88C110 98.3709 110 103.556 106.705 106.778C103.41 110 98.1066 110 87.5 110C76.8934 110 71.5901 110 68.295 106.778C65 103.556 65 98.3709 65 88V77Z" fill="url(#paint0_linear_4216_119749)"/>
<path d="M10 43C10 53.3709 10 58.5563 13.295 61.7782C16.5901 65 21.8934 65 32.5 65C43.1066 65 48.4099 65 51.705 61.7782C55 58.5563 55 53.3709 55 43V32C55 21.6291 55 16.4437 51.705 13.2218C48.4099 10 43.1066 10 32.5 10C21.8934 10 16.5901 10 13.295 13.2218C10 16.4437 10 21.6291 10 32V43Z" fill="url(#paint1_linear_4216_119749)"/>
<path d="M65 27.5C65 22.064 65 19.346 65.8564 17.202C66.9982 14.3434 69.1882 12.0722 71.9448 10.8881C74.0122 10 76.6332 10 81.875 10H93.125C98.3668 10 100.988 10 103.055 10.8881C105.812 12.0722 108.002 14.3434 109.144 17.202C110 19.346 110 22.064 110 27.5C110 32.936 110 35.654 109.144 37.798C108.002 40.6566 105.812 42.9278 103.055 44.1119C100.988 45 98.3668 45 93.125 45H81.875C76.6332 45 74.0122 45 71.9448 44.1119C69.1882 42.9278 66.9982 40.6566 65.8564 37.798C65 35.654 65 32.936 65 27.5Z" fill="url(#paint2_linear_4216_119749)"/>
<path d="M10 92.5C10 97.936 10 100.654 10.8564 102.798C11.9982 105.657 14.1882 107.928 16.9448 109.112C19.0122 110 21.6332 110 26.875 110H38.125C43.3668 110 45.9878 110 48.0552 109.112C50.8118 107.928 53.0018 105.657 54.1436 102.798C55 100.654 55 97.936 55 92.5C55 87.064 55 84.346 54.1436 82.202C53.0018 79.3434 50.8118 77.0722 48.0552 75.8881C45.9878 75 43.3668 75 38.125 75H26.875C21.6332 75 19.0122 75 16.9448 75.8881C14.1882 77.0722 11.9982 79.3434 10.8564 82.202C10 84.346 10 87.064 10 92.5Z" fill="url(#paint3_linear_4216_119749)"/>
<defs>
<linearGradient id="paint0_linear_4216_119749" x1="87.5" y1="110" x2="87.5" y2="55" gradientUnits="userSpaceOnUse">
<stop stop-color="#322C0F"/>
<stop offset="1" stop-color="#FADC4B"/>
</linearGradient>
<linearGradient id="paint1_linear_4216_119749" x1="32.5" y1="65" x2="32.5" y2="10" gradientUnits="userSpaceOnUse">
<stop stop-color="#322C0F"/>
<stop offset="1" stop-color="#FADC4B"/>
</linearGradient>
<linearGradient id="paint2_linear_4216_119749" x1="87.5" y1="45" x2="87.5" y2="10" gradientUnits="userSpaceOnUse">
<stop stop-color="#322C0F"/>
<stop offset="1" stop-color="#FADC4B"/>
</linearGradient>
<linearGradient id="paint3_linear_4216_119749" x1="32.5" y1="110" x2="32.5" y2="75" gradientUnits="userSpaceOnUse">
<stop stop-color="#322C0F"/>
<stop offset="1" stop-color="#FADC4B"/>
</linearGradient>
</defs>
</svg>
