<svg width="278" height="32" viewBox="0 0 278 32" fill="none" xmlns="http://www.w3.org/2000/svg">
<path fill-rule="evenodd" clip-rule="evenodd" d="M7.95294 1.10983C3.63642 2.69272 0.67627 6.40546 0.67627 10.2372C0.67627 16.914 4.73229 19.0163 19.4399 19.9666C26.7297 20.4381 32.6936 21.3783 32.6936 22.0587C32.6936 22.7392 26.913 23.2949 19.8488 23.2949C8.30513 23.2949 6.68534 23.6344 3.84016 26.6521C2.09959 28.4991 0.67627 30.4577 0.67627 31.0047C0.67627 31.5531 8.74901 32 18.6147 32C35.4835 32 36.7409 31.7998 39.7171 28.6427C43.6639 24.4527 43.7571 19.8157 39.9703 16.0406C37.4904 13.5683 35.1197 13.1389 23.9616 13.1389C13.2896 13.1389 10.8636 12.7355 10.8636 10.9626C10.8636 9.20125 13.1834 8.78631 23.0084 8.78631C32.7707 8.78631 35.5825 8.28867 37.3405 6.24731C42.555 0.194343 42.3308 0.0753737 25.8666 0.195795C17.2147 0.258181 9.15359 0.670223 7.95294 1.10983ZM53.828 15.6779L42.7107 31.2746L48.2526 31.7577C54.2326 32.28 53.6752 32.7559 63.7068 18.5636L68.5894 11.6561L72.497 17.1128L76.4046 22.5694L70.9209 23.0337C65.8665 23.4617 58.8896 27.9666 58.8896 30.8016C58.8896 31.4603 66.7484 32 76.3536 32C85.9588 32 93.8176 31.6097 93.8176 31.1324C93.8176 29.9674 78.0928 7.45733 74.4064 3.3456C68.7713 -2.9395 65.849 -1.18832 53.828 15.6779ZM98.1836 16.0406V32H112.654C125.959 32 127.308 31.7403 129.39 28.7747C130.636 27.0018 131.656 25.0431 131.656 24.4222C131.656 23.8027 126.417 23.2949 120.014 23.2949H108.371V11.688V0.0811764H103.277H98.1836V16.0406ZM139.163 4.43374L135.935 8.78631L150.168 8.80807C165.186 8.83129 169.032 9.91653 167.57 13.7178C166.829 15.6445 164.059 16.0406 151.348 16.0406H136.022V24.0203V32H141.116C145.579 32 146.21 31.5502 146.21 28.3729C146.21 24.8734 146.546 24.7457 155.716 24.7457C172.03 24.7457 180.657 18.5114 177.38 9.09099C175.248 2.96112 167.826 0.0855288 154.124 0.0840779C142.774 0.0811762 142.286 0.22336 139.163 4.43374ZM182.593 16.0406V32H187.687C192.66 32 192.78 31.8622 192.78 26.1966V20.3932H202.24H211.7V26.1966C211.7 31.8723 211.813 32 216.843 32H221.986L221.573 16.4033L221.159 0.806604L216.429 0.352487C211.794 -0.0929259 211.7 0.015888 211.7 5.7932V11.688H202.24H192.78V5.8846C192.78 0.219008 192.66 0.0811764 187.687 0.0811764H182.593V16.0406ZM245.711 3.28031C244.059 5.11129 238.683 12.3235 233.764 19.305L224.821 32L230.994 31.9376C236.986 31.8781 237.375 31.5749 244.209 21.6336L251.25 11.3906L254.76 16.5411C256.691 19.3732 258.27 22.0515 258.27 22.4925C258.27 22.9336 255.774 23.2949 252.723 23.2949C248.246 23.2949 246.552 24.1349 243.947 27.6474L240.719 32H259.021H277.324L266.705 16.4033C254.99 -0.805296 251.413 -3.04106 245.711 3.28031Z" fill="black"/>
</svg>
