<svg width="120" height="120" viewBox="0 0 120 120" fill="none" xmlns="http://www.w3.org/2000/svg">
<path d="M56.2488 10C35.1572 10.0206 24.2444 10.3979 17.3211 17.3211C10.3979 24.2444 10.0206 35.1572 10 56.2488H34.5676C32.8127 54.0568 31.5015 51.4713 30.7865 48.6114C28.0953 37.8463 37.8463 28.0953 48.6114 30.7865C51.4713 31.5015 54.0568 32.8127 56.2488 34.5676V10Z" fill="url(#paint0_linear_4216_119659)"/>
<path d="M10 63.7488C10.0206 84.8404 10.3979 95.7532 17.3211 102.676C24.2444 109.6 35.1572 109.977 56.2488 109.998V70.6171C52.3506 78.4033 44.299 83.7488 34.9988 83.7488C32.9277 83.7488 31.2488 82.0699 31.2488 79.9988C31.2488 77.9277 32.9277 76.2488 34.9988 76.2488C42.6828 76.2488 49.1211 70.9156 50.814 63.7488H10Z" fill="url(#paint1_linear_4216_119659)"/>
<path d="M63.7488 109.998C84.8404 109.977 95.7532 109.6 102.676 102.676C109.6 95.7532 109.977 84.8404 109.998 63.7488H69.1836C70.8765 70.9156 77.3149 76.2488 84.9988 76.2488C87.0699 76.2488 88.7488 77.9277 88.7488 79.9988C88.7488 82.0699 87.0699 83.7488 84.9988 83.7488C75.6987 83.7488 67.647 78.4033 63.7488 70.6171V109.998Z" fill="url(#paint2_linear_4216_119659)"/>
<path d="M109.998 56.2488C109.977 35.1572 109.6 24.2444 102.676 17.3211C95.7532 10.3979 84.8404 10.0206 63.7488 10V34.5676C65.9408 32.8127 68.5263 31.5015 71.3862 30.7865C82.1513 28.0953 91.9024 37.8463 89.2111 48.6114C88.4961 51.4713 87.1849 54.0568 85.43 56.2488H109.998Z" fill="url(#paint3_linear_4216_119659)"/>
<path d="M46.7924 38.0626C52.35 39.452 56.2488 44.4455 56.2488 50.1742V56.2488H50.1742C44.4455 56.2488 39.452 52.35 38.0626 46.7924C36.7446 41.5201 41.5201 36.7446 46.7924 38.0626Z" fill="url(#paint4_linear_4216_119659)"/>
<path d="M63.7488 50.1742V56.2488H69.8234C75.5521 56.2488 80.5456 52.35 81.935 46.7924C83.2531 41.5201 78.4775 36.7446 73.2053 38.0626C67.6476 39.452 63.7488 44.4455 63.7488 50.1742Z" fill="url(#paint5_linear_4216_119659)"/>
<defs>
<linearGradient id="paint0_linear_4216_119659" x1="59.9988" y1="109.998" x2="59.9988" y2="10" gradientUnits="userSpaceOnUse">
<stop stop-color="#322C0F"/>
<stop offset="1" stop-color="#FADC4B"/>
</linearGradient>
<linearGradient id="paint1_linear_4216_119659" x1="59.9988" y1="109.998" x2="59.9988" y2="10" gradientUnits="userSpaceOnUse">
<stop stop-color="#322C0F"/>
<stop offset="1" stop-color="#FADC4B"/>
</linearGradient>
<linearGradient id="paint2_linear_4216_119659" x1="59.9988" y1="109.998" x2="59.9988" y2="10" gradientUnits="userSpaceOnUse">
<stop stop-color="#322C0F"/>
<stop offset="1" stop-color="#FADC4B"/>
</linearGradient>
<linearGradient id="paint3_linear_4216_119659" x1="59.9988" y1="109.998" x2="59.9988" y2="10" gradientUnits="userSpaceOnUse">
<stop stop-color="#322C0F"/>
<stop offset="1" stop-color="#FADC4B"/>
</linearGradient>
<linearGradient id="paint4_linear_4216_119659" x1="59.9988" y1="109.998" x2="59.9988" y2="10" gradientUnits="userSpaceOnUse">
<stop stop-color="#322C0F"/>
<stop offset="1" stop-color="#FADC4B"/>
</linearGradient>
<linearGradient id="paint5_linear_4216_119659" x1="59.9988" y1="109.998" x2="59.9988" y2="10" gradientUnits="userSpaceOnUse">
<stop stop-color="#322C0F"/>
<stop offset="1" stop-color="#FADC4B"/>
</linearGradient>
</defs>
</svg>
