<svg width="20" height="20" viewBox="0 0 20 20" fill="none" xmlns="http://www.w3.org/2000/svg">
<path d="M2.29483 12.2625L2.7262 13.8724C3.22974 15.7516 3.48151 16.6912 4.05228 17.3007C4.50295 17.7818 5.08619 18.1186 5.72824 18.2683C6.54138 18.4579 7.481 18.2061 9.36022 17.7026L9.36023 17.7026C11.2395 17.199 12.1791 16.9473 12.7885 16.3765C12.8391 16.3291 12.8881 16.2803 12.9354 16.2301C12.6569 16.2067 12.376 16.1619 12.0905 16.1051C11.5104 15.9898 10.8212 15.8051 10.006 15.5866L9.917 15.5628L9.89639 15.5573C9.00941 15.3196 8.26836 15.1206 7.67666 14.9069C7.05441 14.6821 6.48902 14.405 6.00891 13.9553C5.34729 13.3356 4.88429 12.5337 4.67844 11.6509C4.52907 11.0103 4.57178 10.3821 4.68824 9.73079C4.79983 9.10668 5.00026 8.35874 5.2404 7.46262L5.2404 7.46261L5.68572 5.80064L5.70139 5.74219C4.10093 6.17332 3.25852 6.4284 2.69674 6.95457C2.21556 7.40524 1.87883 7.98848 1.72912 8.63053C1.53952 9.44367 1.79129 10.3833 2.29483 12.2625Z" fill="url(#paint0_linear_4653_40794)"/>
<path fill-rule="evenodd" clip-rule="evenodd" d="M17.3584 8.93082L16.927 10.5407C16.4235 12.4199 16.1717 13.3595 15.6009 13.969C15.1502 14.4501 14.567 14.7869 13.925 14.9366C13.8447 14.9553 13.7633 14.9697 13.6798 14.98C12.9173 15.074 11.9868 14.8247 10.293 14.3709C8.41373 13.8673 7.47411 13.6155 6.86471 13.0448C6.38353 12.5941 6.0468 12.0109 5.89709 11.3688C5.70749 10.5557 5.95926 9.61606 6.4628 7.73682L6.89417 6.12695C6.96657 5.85675 7.03381 5.6058 7.09749 5.37265C7.47672 3.98428 7.73156 3.22045 8.22024 2.69869C8.67092 2.21751 9.25415 1.88078 9.8962 1.73108C10.7093 1.54148 11.649 1.79325 13.5282 2.29679C15.4074 2.80032 16.347 3.05209 16.9565 3.62286C17.4376 4.07354 17.7744 4.65677 17.9241 5.29882C18.1137 6.11197 17.8619 7.05159 17.3584 8.93082ZM9.21099 8.17287C9.30033 7.83946 9.64304 7.64159 9.97646 7.73093L14.0011 8.80934C14.3346 8.89868 14.5324 9.24139 14.4431 9.57481C14.3538 9.90823 14.011 10.1061 13.6776 10.0168L9.65294 8.93834C9.31952 8.849 9.12165 8.50629 9.21099 8.17287ZM8.56361 10.5874C8.65295 10.254 8.99566 10.0561 9.32908 10.1455L11.7439 10.7925C12.0773 10.8819 12.2752 11.2246 12.1858 11.558C12.0965 11.8914 11.7538 12.0893 11.4204 11.9999L9.00556 11.3529C8.67214 11.2636 8.47428 10.9208 8.56361 10.5874Z" fill="url(#paint1_linear_4653_40794)"/>
<defs>
<linearGradient id="paint0_linear_4653_40794" x1="1.66602" y1="12.0368" x2="12.9354" y2="12.0368" gradientUnits="userSpaceOnUse">
<stop stop-color="#322C0F"/>
<stop offset="1" stop-color="#FADC4B"/>
</linearGradient>
<linearGradient id="paint1_linear_4653_40794" x1="5.83398" y1="8.33382" x2="17.9872" y2="8.33382" gradientUnits="userSpaceOnUse">
<stop stop-color="#322C0F"/>
<stop offset="1" stop-color="#FADC4B"/>
</linearGradient>
</defs>
</svg>
